<svg id="River" enable-background="new 0 0 64 64" height="512" viewBox="0 0 64 64" width="512" xmlns="http://www.w3.org/2000/svg"><g><g><path d="m54.01553 64c-5.32813-.00001-27.09216-.00002-36.1043-.00002-1.36984 0-1.99513-1.72756-.9318-2.59114 1.48463-1.20573 2.89006-2.25051 4.15272-3.1758 4.39771-3.21566 6.31787-4.63319 6.62413-8.19714.2918-3.22714-1.16537-4.31762-4.17185-6.59579-3.61149-2.75148-8.06426-6.15176-6.34055-11.53316.44167-1.39565 1.68578-2.74944 3.15848-3.98035 3.85851-3.1744 9.88787-4.70658 18.61558-4.70658h8.14991c-.54748 2.22502-3.33772 3.27123-5.58985 4.5161-2.30445 1.28408-6.57377 4.00259 1.42877 8.53405 4.25237 2.39775 10.76361 5.92345 13.31569 13.76574 1.60115 5.00761 1.00008 9.20004-.60103 12.86949-.29503.67615-.96817 1.0946-1.7059 1.0946z" fill="#8cd9f4"/><g fill="#59b7ea"><path d="m28.9441 57.91121c-.3075 0-.61625-.11-.86125-.3325-.5225-.475-.56125-1.285-.08625-1.8075 1.70625-1.8775 2.5675-3.89 2.79375-6.525.05875-.705.69125-1.2275 1.38375-1.165.705.06 1.2275.68 1.16625 1.385-.2725 3.1875-1.36875 5.7375-3.44875 8.025-.2525.28-.6.42-.9475.42z"/><path d="m50.64285 51.78621c-.54 0-1.04-.3425-1.2175-.8825-1.725-5.2975-6.1675-7.8-10.0875-10.0075l-.2875-.16c-.885-.5025-2.70625-1.535-4.35625-3.0925-.51375-.485-.5375-1.295-.0525-1.8075.48625-.515 1.29375-.54 1.81-.0525 1.42375 1.3425 3.00375 2.2375 3.85125 2.72l.2875.16c4.115 2.3175 9.235 5.2 11.27 11.445.2175.6725-.15 1.395-.82 1.615-.1325.0425-.2675.0625-.3975.0625z"/></g></g><g><path d="m35.48362 16.0563c0 5.57656 4.5207 10.09726 10.09726 10.09726s10.09726-4.5207 10.09726-10.09726-4.5207-16.0563-10.09726-16.0563c-5.57657 0-10.09726 10.47974-10.09726 16.0563z" fill="#80d34a"/><path d="m51.28787 15.53617c-.5075-.49373-1.315-.48745-1.81001.01752l-2.6175 2.66715v-5.14462c0-.70752-.57251-1.28003-1.28003-1.28003-.70746 0-1.27996.57251-1.27996 1.28003v19.72247c0 .70752.57251 1.28003 1.27996 1.28003.70752 0 1.28003-.57251 1.28003-1.28003v-10.92579l4.44249-4.52673c.49501-.50375.48751-1.315-.01498-1.81z" fill="#66a53d"/></g><g><path d="m26.93036 35.0405c0 5.57656-4.5207 10.09726-10.09726 10.09726s-10.09726-4.5207-10.09726-10.09726c0-5.57657 4.5207-16.0563 10.09726-16.0563s10.09726 10.47973 10.09726 16.0563z" fill="#80d34a"/><path d="m16.83285 30.78118c-.70752 0-1.27996.57251-1.27996 1.28003v5.13961l-2.61503-2.66461c-.49748-.50503-1.30872-.51252-1.81001-.01498-.50497.495-.51252 1.30498-.01752 1.80994l4.44255 4.52685v10.92319c0 .70746.57244 1.27996 1.27996 1.27996s1.28003-.57251 1.28003-1.27996v-19.72c0-.70752-.5725-1.28003-1.28002-1.28003z" fill="#66a53d"/></g></g></svg>